{
  "accessors": [
    {
      "bufferView": 2,
      "componentType": 5126,
      "count": 48632,
      "max": [
        19.698795318603516,
        22.52992820739746,
        3.559884786605835
      ],
      "min": [
        -23.54331398010254,
        -19.2224178314209,
        -0.7404354214668274
      ],
      "type": "VEC3"
    },
    {
      "bufferView": 2,
      "byteOffset": 583584,
      "componentType": 5126,
      "count": 48632,
      "max": [
        0.9994689226150513,
        0.9999778866767883,
        0.9999927878379822
      ],
      "min": [
        -0.9999464154243469,
        -0.9999977350234985,
        -0.9992664456367493
      ],
      "type": "VEC3"
    },
    {
      "bufferView": 3,
      "componentType": 5126,
      "count": 48632,
      "max": [
        1.0,
        0.9973720908164978,
        0.9999975562095642,
        1.0
      ],
      "min": [
        -0.9999998211860657,
        -0.9996732473373413,
        -0.9999913573265076,
        -1.0
      ],
      "type": "VEC4"
    },
    {
      "bufferView": 1,
      "componentType": 5126,
      "count": 48632,
      "max": [
        0.9997559785842896,
        0.9938960075378418
      ],
      "min": [
        0.00024399999529123306,
        0.00024399999529123306
      ],
      "type": "VEC2"
    },
    {
      "bufferView": 0,
      "componentType": 5125,
      "count": 149892,
      "type": "SCALAR"
    },
    {
      "bufferView": 2,
      "byteOffset": 1167168,
      "componentType": 5126,
      "count": 3536,
      "max": [
        21.80620002746582,
        25.70479965209961,
        1.2785999774932861
      ],
      "min": [
        -26.7810001373291,
        -22.882400512695313,
        -4.724299907684326
      ],
      "type": "VEC3"
    },
    {
      "bufferView": 2,
      "byteOffset": 1209600,
      "componentType": 5126,
      "count": 3536,
      "max": [
        0.9581586718559265,
        0.958133339881897,
        0.9999665021896362
      ],
      "min": [
        -0.958133339881897,
        -0.9581400156021118,
        -0.9998927712440491
      ],
      "type": "VEC3"
    },
    {
      "bufferView": 1,
      "byteOffset": 389056,
      "componentType": 5126,
      "count": 3536,
      "max": [
        0.9932439923286438,
        0.9950000047683716
      ],
      "min": [
        0.004999999888241291,
        0.004999999888241291
      ],
      "type": "VEC2"
    },
    {
      "bufferView": 0,
      "byteOffset": 599568,
      "componentType": 5125,
      "count": 16116,
      "type": "SCALAR"
    }
  ],
  "asset": {
    "extras": {
      "author": "Rigsters (https://sketchfab.com/rigsters)",
      "license": "CC-BY-4.0 (http://creativecommons.org/licenses/by/4.0/)",
      "source": "https://sketchfab.com/3d-models/pizza-40d50989fec1460f8838b608d999ccd0",
      "title": "Pizza"
    },
    "generator": "Sketchfab-12.68.0",
    "version": "2.0"
  },
  "bufferViews": [
    {
      "buffer": 0,
      "byteLength": 664032,
      "name": "floatBufferViews",
      "target": 34963
    },
    {
      "buffer": 0,
      "byteLength": 417344,
      "byteOffset": 664032,
      "byteStride": 8,
      "name": "floatBufferViews",
      "target": 34962
    },
    {
      "buffer": 0,
      "byteLength": 1252032,
      "byteOffset": 1081376,
      "byteStride": 12,
      "name": "floatBufferViews",
      "target": 34962
    },
    {
      "buffer": 0,
      "byteLength": 778112,
      "byteOffset": 2333408,
      "byteStride": 16,
      "name": "floatBufferViews",
      "target": 34962
    }
  ],
  "buffers": [
    {
      "byteLength": 3111520,
      "uri": "scene.bin"
    }
  ],
  "images": [
    {
      "uri": "textures/Tarelka001__0_baseColor.jpeg"
    },
    {
      "uri": "textures/pizza_baseColor.jpeg"
    },
    {
      "uri": "textures/pizza_metallicRoughness.png"
    },
    {
      "uri": "textures/pizza_normal.jpeg"
    }
  ],
  "materials": [
    {
      "doubleSided": true,
      "name": "Tarelka001__0",
      "pbrMetallicRoughness": {
        "baseColorTexture": {
          "index": 0
        },
        "metallicFactor": 0.0,
        "roughnessFactor": 0.7982954545454546
      }
    },
    {
      "doubleSided": true,
      "name": "pizza",
      "normalTexture": {
        "index": 3,
        "scale": 0.5
      },
      "pbrMetallicRoughness": {
        "baseColorTexture": {
          "index": 1
        },
        "metallicFactor": 0.0,
        "metallicRoughnessTexture": {
          "index": 2
        }
      }
    }
  ],
  "meshes": [
    {
      "name": "pizza_pizza_0",
      "primitives": [
        {
          "attributes": {
            "NORMAL": 1,
            "POSITION": 0,
            "TANGENT": 2,
            "TEXCOORD_0": 3
          },
          "indices": 4,
          "material": 1,
          "mode": 4
        }
      ]
    },
    {
      "name": "Tarelka001__0",
      "primitives": [
        {
          "attributes": {
            "NORMAL": 6,
            "POSITION": 5,
            "TEXCOORD_0": 7
          },
          "indices": 8,
          "material": 0,
          "mode": 4
        }
      ]
    }
  ],
  "nodes": [
    {
      "children": [
        1
      ],
      "matrix": [
        0.012412858195602894,
        0.0,
        0.0,
        0.0,
        0.0,
        2.7562081940330816e-18,
        -0.012412858195602894,
        0.0,
        0.0,
        0.012412858195602894,
        2.7562081940330816e-18,
        0.0,
        0.0,
        0.0,
        0.0,
        1.0
      ],
      "name": "Sketchfab_model"
    },
    {
      "children": [
        2
      ],
      "matrix": [
        1.0,
        0.0,
        0.0,
        0.0,
        0.0,
        0.0,
        1.0,
        0.0,
        0.0,
        -1.0,
        0.0,
        0.0,
        0.0,
        0.0,
        0.0,
        1.0
      ],
      "name": "5c4c54040e5e4456bad50d3f439f1ab1.fbx"
    },
    {
      "children": [
        3,
        5
      ],
      "name": "RootNode"
    },
    {
      "children": [
        4
      ],
      "matrix": [
        1.0,
        0.0,
        0.0,
        0.0,
        0.0,
        2.220446049250313e-16,
        -1.0,
        0.0,
        0.0,
        1.0,
        2.220446049250313e-16,
        0.0,
        0.0,
        0.0,
        0.0,
        1.0
      ],
      "name": "pizza"
    },
    {
      "mesh": 0,
      "name": "pizza_pizza_0"
    },
    {
      "children": [
        6
      ],
      "matrix": [
        1.0,
        0.0,
        0.0,
        0.0,
        0.0,
        2.220446049250313e-16,
        -1.0,
        0.0,
        0.0,
        1.0,
        2.220446049250313e-16,
        0.0,
        0.0,
        0.0,
        0.0,
        1.0
      ],
      "name": "Tarelka001"
    },
    {
      "mesh": 1,
      "name": "Tarelka001__0"
    }
  ],
  "samplers": [
    {
      "magFilter": 9729,
      "minFilter": 9987,
      "wrapS": 10497,
      "wrapT": 10497
    }
  ],
  "scene": 0,
  "scenes": [
    {
      "name": "Sketchfab_Scene",
      "nodes": [
        0
      ]
    }
  ],
  "textures": [
    {
      "sampler": 0,
      "source": 0
    },
    {
      "sampler": 0,
      "source": 1
    },
    {
      "sampler": 0,
      "source": 2
    },
    {
      "sampler": 0,
      "source": 3
    }
  ]
}
